<svg width="93" height="78" viewBox="0 0 93 78" fill="none" xmlns="http://www.w3.org/2000/svg">
<path d="M92.1254 37.0874L40.7865 0.251953" stroke="white" stroke-width="0.5" stroke-miterlimit="10"/>
<path d="M90.4319 38.7895L39.0885 1.9541" stroke="white" stroke-width="0.5" stroke-miterlimit="10"/>
<path d="M88.734 40.4875L37.3907 3.66113" stroke="white" stroke-width="0.5" stroke-miterlimit="10"/>
<path d="M87.036 42.1894L35.6927 5.354" stroke="white" stroke-width="0.5" stroke-miterlimit="10"/>
<path d="M85.3427 43.892L33.9993 7.05664" stroke="white" stroke-width="0.5" stroke-miterlimit="10"/>
<path d="M83.6448 45.5897L32.3014 8.75879" stroke="white" stroke-width="0.5" stroke-miterlimit="10"/>
<path d="M81.9468 47.2917L30.6079 10.4653" stroke="white" stroke-width="0.5" stroke-miterlimit="10"/>
<path d="M80.2488 48.9985L28.9099 12.1631" stroke="white" stroke-width="0.5" stroke-miterlimit="10"/>
<path d="M78.5554 50.6962L27.2121 13.8608" stroke="white" stroke-width="0.5" stroke-miterlimit="10"/>
<path d="M76.8575 52.3984L25.5142 15.563" stroke="white" stroke-width="0.5" stroke-miterlimit="10"/>
<path d="M75.1641 54.0965L23.8162 17.2656" stroke="white" stroke-width="0.5" stroke-miterlimit="10"/>
<path d="M73.4661 55.7987L22.1227 18.9678" stroke="white" stroke-width="0.5" stroke-miterlimit="10"/>
<path d="M71.7682 57.4963L20.4248 20.6699" stroke="white" stroke-width="0.5" stroke-miterlimit="10"/>
<path d="M70.0702 59.2031L18.7268 22.3677" stroke="white" stroke-width="0.5" stroke-miterlimit="10"/>
<path d="M68.3768 60.9007L17.029 24.0698" stroke="white" stroke-width="0.5" stroke-miterlimit="10"/>
<path d="M66.6788 62.6029L15.3355 25.772" stroke="white" stroke-width="0.5" stroke-miterlimit="10"/>
<path d="M64.981 64.3006L13.6376 27.4697" stroke="white" stroke-width="0.5" stroke-miterlimit="10"/>
<path d="M63.2875 66.0033L11.9441 29.1724" stroke="white" stroke-width="0.5" stroke-miterlimit="10"/>
<path d="M61.5851 67.7054L10.2462 30.8745" stroke="white" stroke-width="0.5" stroke-miterlimit="10"/>
<path d="M59.8916 69.4077L8.54825 32.5723" stroke="white" stroke-width="0.5" stroke-miterlimit="10"/>
<path d="M58.1937 71.1053L6.85038 34.2744" stroke="white" stroke-width="0.5" stroke-miterlimit="10"/>
<path d="M56.4957 72.8075L5.15238 35.9766" stroke="white" stroke-width="0.5" stroke-miterlimit="10"/>
<path d="M54.8024 74.5096L3.45902 37.6787" stroke="white" stroke-width="0.5" stroke-miterlimit="10"/>
<path d="M53.1045 76.2119L1.76114 39.3765" stroke="white" stroke-width="0.5" stroke-miterlimit="10"/>
<path d="M51.411 77.9095L0.0676605 41.0786" stroke="white" stroke-width="0.5" stroke-miterlimit="10"/>
</svg>
