<svg width="145" height="122" viewBox="0 0 145 122" fill="none" xmlns="http://www.w3.org/2000/svg">
<path d="M144.448 57.5604L64.3434 0.0903321" stroke="white" stroke-width="0.5" stroke-miterlimit="10"/>
<path d="M141.8 60.2152L61.6907 2.74512" stroke="white" stroke-width="0.5" stroke-miterlimit="10"/>
<path d="M139.156 62.866L59.0469 5.40039" stroke="white" stroke-width="0.5" stroke-miterlimit="10"/>
<path d="M136.503 65.5208L56.3986 8.05518" stroke="white" stroke-width="0.5" stroke-miterlimit="10"/>
<path d="M133.86 68.1755L53.7505 10.71" stroke="white" stroke-width="0.5" stroke-miterlimit="10"/>
<path d="M131.211 70.8309L51.1067 13.3608" stroke="white" stroke-width="0.5" stroke-miterlimit="10"/>
<path d="M128.563 73.4857L48.4585 16.0156" stroke="white" stroke-width="0.5" stroke-miterlimit="10"/>
<path d="M125.915 76.136L45.8103 18.6704" stroke="white" stroke-width="0.5" stroke-miterlimit="10"/>
<path d="M123.271 78.7913L43.162 21.3257" stroke="white" stroke-width="0.5" stroke-miterlimit="10"/>
<path d="M120.623 81.4461L40.5138 23.9805" stroke="white" stroke-width="0.5" stroke-miterlimit="10"/>
<path d="M117.975 84.1008L37.87 26.6353" stroke="white" stroke-width="0.5" stroke-miterlimit="10"/>
<path d="M115.331 86.7517L35.2218 29.2861" stroke="white" stroke-width="0.5" stroke-miterlimit="10"/>
<path d="M112.683 89.4065L32.5736 31.9409" stroke="white" stroke-width="0.5" stroke-miterlimit="10"/>
<path d="M110.034 92.0613L29.9253 34.5957" stroke="white" stroke-width="0.5" stroke-miterlimit="10"/>
<path d="M107.386 94.7166L27.2771 37.251" stroke="white" stroke-width="0.5" stroke-miterlimit="10"/>
<path d="M104.738 97.3715L24.6289 39.9014" stroke="white" stroke-width="0.5" stroke-miterlimit="10"/>
<path d="M102.09 100.022L21.9851 42.5605" stroke="white" stroke-width="0.5" stroke-miterlimit="10"/>
<path d="M99.446 102.682L19.3369 45.2114" stroke="white" stroke-width="0.5" stroke-miterlimit="10"/>
<path d="M96.7977 105.332L16.6886 47.8662" stroke="white" stroke-width="0.5" stroke-miterlimit="10"/>
<path d="M94.1495 107.987L14.0404 50.5166" stroke="white" stroke-width="0.5" stroke-miterlimit="10"/>
<path d="M91.5013 110.637L11.3922 53.1714" stroke="white" stroke-width="0.5" stroke-miterlimit="10"/>
<path d="M88.8575 113.292L8.7484 55.8267" stroke="white" stroke-width="0.5" stroke-miterlimit="10"/>
<path d="M86.2048 115.947L6.10021 58.4814" stroke="white" stroke-width="0.5" stroke-miterlimit="10"/>
<path d="M83.5612 118.602L3.45202 61.1367" stroke="white" stroke-width="0.5" stroke-miterlimit="10"/>
<path d="M80.9128 121.257L0.808214 63.7871" stroke="white" stroke-width="0.5" stroke-miterlimit="10"/>
</svg>
