<svg width="145" height="122" viewBox="0 0 145 122" fill="none" xmlns="http://www.w3.org/2000/svg">
<path d="M0.552002 57.5604L80.6566 0.090332" stroke="white" stroke-width="0.5" stroke-miterlimit="10"/>
<path d="M3.2002 60.2152L83.3093 2.74512" stroke="white" stroke-width="0.5" stroke-miterlimit="10"/>
<path d="M5.84399 62.866L85.9531 5.40039" stroke="white" stroke-width="0.5" stroke-miterlimit="10"/>
<path d="M8.49658 65.5208L88.6012 8.05518" stroke="white" stroke-width="0.5" stroke-miterlimit="10"/>
<path d="M11.1404 68.1755L91.2495 10.71" stroke="white" stroke-width="0.5" stroke-miterlimit="10"/>
<path d="M13.7886 70.8309L93.8932 13.3608" stroke="white" stroke-width="0.5" stroke-miterlimit="10"/>
<path d="M16.437 73.4857L96.5417 16.0156" stroke="white" stroke-width="0.5" stroke-miterlimit="10"/>
<path d="M19.0852 76.136L99.1899 18.6704" stroke="white" stroke-width="0.5" stroke-miterlimit="10"/>
<path d="M21.7288 78.7913L101.838 21.3257" stroke="white" stroke-width="0.5" stroke-miterlimit="10"/>
<path d="M24.3772 81.4461L104.486 23.9805" stroke="white" stroke-width="0.5" stroke-miterlimit="10"/>
<path d="M27.0254 84.1008L107.13 26.6353" stroke="white" stroke-width="0.5" stroke-miterlimit="10"/>
<path d="M29.6692 86.7517L109.778 29.2861" stroke="white" stroke-width="0.5" stroke-miterlimit="10"/>
<path d="M32.3174 89.4065L112.427 31.9409" stroke="white" stroke-width="0.5" stroke-miterlimit="10"/>
<path d="M34.9656 92.0613L115.075 34.5957" stroke="white" stroke-width="0.5" stroke-miterlimit="10"/>
<path d="M37.6138 94.7166L117.723 37.251" stroke="white" stroke-width="0.5" stroke-miterlimit="10"/>
<path d="M40.262 97.3715L120.371 39.9014" stroke="white" stroke-width="0.5" stroke-miterlimit="10"/>
<path d="M42.9102 100.022L123.015 42.5605" stroke="white" stroke-width="0.5" stroke-miterlimit="10"/>
<path d="M45.554 102.682L125.663 45.2114" stroke="white" stroke-width="0.5" stroke-miterlimit="10"/>
<path d="M48.2021 105.332L128.311 47.8662" stroke="white" stroke-width="0.5" stroke-miterlimit="10"/>
<path d="M50.8503 107.987L130.959 50.5166" stroke="white" stroke-width="0.5" stroke-miterlimit="10"/>
<path d="M53.4988 110.637L133.608 53.1714" stroke="white" stroke-width="0.5" stroke-miterlimit="10"/>
<path d="M56.1423 113.292L136.251 55.8267" stroke="white" stroke-width="0.5" stroke-miterlimit="10"/>
<path d="M58.7952 115.947L138.9 58.4814" stroke="white" stroke-width="0.5" stroke-miterlimit="10"/>
<path d="M61.439 118.602L141.548 61.1367" stroke="white" stroke-width="0.5" stroke-miterlimit="10"/>
<path d="M64.0872 121.257L144.192 63.7871" stroke="white" stroke-width="0.5" stroke-miterlimit="10"/>
</svg>
