<svg width="93" height="78" viewBox="0 0 93 78" fill="none" xmlns="http://www.w3.org/2000/svg">
<path d="M0.874756 37.0874L52.2136 0.251953" stroke="white" stroke-width="0.5" stroke-miterlimit="10"/>
<path d="M2.56812 38.7895L53.9115 1.9541" stroke="white" stroke-width="0.5" stroke-miterlimit="10"/>
<path d="M4.26611 40.4875L55.6095 3.66113" stroke="white" stroke-width="0.5" stroke-miterlimit="10"/>
<path d="M5.96411 42.1894L57.3075 5.354" stroke="white" stroke-width="0.5" stroke-miterlimit="10"/>
<path d="M7.65747 43.892L59.0008 7.05664" stroke="white" stroke-width="0.5" stroke-miterlimit="10"/>
<path d="M9.35547 45.5897L60.6988 8.75879" stroke="white" stroke-width="0.5" stroke-miterlimit="10"/>
<path d="M11.0535 47.2917L62.3923 10.4653" stroke="white" stroke-width="0.5" stroke-miterlimit="10"/>
<path d="M12.7512 48.9985L64.0901 12.1631" stroke="white" stroke-width="0.5" stroke-miterlimit="10"/>
<path d="M14.4448 50.6962L65.7882 13.8608" stroke="white" stroke-width="0.5" stroke-miterlimit="10"/>
<path d="M16.1426 52.3984L67.4859 15.563" stroke="white" stroke-width="0.5" stroke-miterlimit="10"/>
<path d="M17.8362 54.0965L69.184 17.2656" stroke="white" stroke-width="0.5" stroke-miterlimit="10"/>
<path d="M19.5339 55.7987L70.8773 18.9678" stroke="white" stroke-width="0.5" stroke-miterlimit="10"/>
<path d="M21.2319 57.4963L72.5753 20.6699" stroke="white" stroke-width="0.5" stroke-miterlimit="10"/>
<path d="M22.9299 59.2031L74.2733 22.3677" stroke="white" stroke-width="0.5" stroke-miterlimit="10"/>
<path d="M24.6233 60.9007L75.9711 24.0698" stroke="white" stroke-width="0.5" stroke-miterlimit="10"/>
<path d="M26.3213 62.6029L77.6646 25.772" stroke="white" stroke-width="0.5" stroke-miterlimit="10"/>
<path d="M28.019 64.3006L79.3624 27.4697" stroke="white" stroke-width="0.5" stroke-miterlimit="10"/>
<path d="M29.7126 66.0033L81.056 29.1724" stroke="white" stroke-width="0.5" stroke-miterlimit="10"/>
<path d="M31.415 67.7054L82.7539 30.8745" stroke="white" stroke-width="0.5" stroke-miterlimit="10"/>
<path d="M33.1084 69.4077L84.4517 32.5723" stroke="white" stroke-width="0.5" stroke-miterlimit="10"/>
<path d="M34.8064 71.1053L86.1497 34.2744" stroke="white" stroke-width="0.5" stroke-miterlimit="10"/>
<path d="M36.5044 72.8075L87.8477 35.9766" stroke="white" stroke-width="0.5" stroke-miterlimit="10"/>
<path d="M38.1978 74.5096L89.5411 37.6787" stroke="white" stroke-width="0.5" stroke-miterlimit="10"/>
<path d="M39.8958 76.2119L91.2391 39.3765" stroke="white" stroke-width="0.5" stroke-miterlimit="10"/>
<path d="M41.5891 77.9095L92.9325 41.0786" stroke="white" stroke-width="0.5" stroke-miterlimit="10"/>
</svg>
